PathFileType	4	(X/Y/Z)	./resultDataOpenSim/trcMotMarkerGrf/sub10/qtm-04-01.trc
DataRate	CameraRate	NumFrames	NumMarkers	Units	OrigDataRate	OrigDataStartFrame	OrigNumFrames
250.000000	250.000000	8	24	m	250.000000	247	493
Frame#	Time	L.Toe.Tip			R.Toe.Tip			L.Ankle.Lat			R.Ankle.Lat			L.Ankle.Med			R.Ankle.Med			L.Heel			R.Heel			L.Knee.Lat			R.Knee.Lat			L.Knee.Med			R.Knee.Med			L.Thigh.Upper			R.Thigh.Upper			L.ASIS			R.ASIS			V.Sacral			L.Acromium			R.Acromium			C7			L.Elbow			R.Elbow			L.Wrist.Lat			R.Wrist.Lat
		X1	Y1	Z1	X2	Y2	Z2	X3	Y3	Z3	X4	Y4	Z4	X5	Y5	Z5	X6	Y6	Z6	X7	Y7	Z7	X8	Y8	Z8	X9	Y9	Z9	X10	Y10	Z10	X11	Y11	Z11	X12	Y12	Z12	X13	Y13	Z13	X14	Y14	Z14	X15	Y15	Z15	X16	Y16	Z16	X17	Y17	Z17	X18	Y18	Z18	X19	Y19	Z19	X20	Y20	Z20	X21	Y21	Z21	X22	Y22	Z22	X23	Y23	Z23	X24	Y24	Z24

247	0.984	0.097750164	-0.032479095	-0.044678154	0.14406981	0.092082503	0.099585687	-0.032128331	0.010705711	-0.0874757	0.035608341	0.1862756	0.09244222	-0.028555746	0.037263612	-0.0072774755	0.08944948	0.18389124	0.020345141	-0.1003727	-0.0071153129	-0.044532695	-0.0082309675	0.18289203	0.034037056	0.049528135	0.39131564	-0.12932333	0.28735454	0.46514595	0.14588725	0.048677151	0.3726062	-0.0066739372	0.34103673	0.47395152	0.021377356	0.1068382	0.78270328	-0.19213612	0.080986508	0.80776132	0.18508742	0.17118477	0.88790047	-0.12269533	0.15846412	0.90229821	0.11844254	-0.033582057	0.92471956	-0.0082233745	0.13445119	1.364494	-0.1714602	0.094783891	1.3792301	0.14558964	0.037375292	1.3985999	-0.030620622	0.058313405	1.0242685	-0.22556222	-0.01847869	1.0519159	0.19147473	0.26230686	0.86922794	-0.24885833	0.073701833	0.83766173	0.26766907
248	0.988	0.097803412	-0.032446949	-0.044757956	0.16534129	0.090789931	0.099532609	-0.032171117	0.011354672	-0.087109606	0.053974147	0.1812137	0.09254212	-0.028381193	0.037916543	-0.0070365766	0.10748823	0.18050829	0.019897998	-0.10030124	-0.0061134763	-0.044271453	0.010281833	0.1763425	0.034111556	0.048952947	0.39183695	-0.1289951	0.29791494	0.46800939	0.14534625	0.049046628	0.37311385	-0.0066432859	0.35077483	0.47822083	0.021008299	0.1101223	0.78282006	-0.19200591	0.087863937	0.8089215	0.18527355	0.17556296	0.88799122	-0.12359223	0.16458165	0.90293225	0.11736075	-0.025565802	0.92464052	-0.0081405351	0.14019874	1.3648465	-0.17131285	0.10108897	1.3793848	0.14578575	0.043419636	1.3990065	-0.030606978	0.066637392	1.0239419	-0.22570062	-0.015300617	1.0533245	0.19117749	0.27396797	0.87270932	-0.24767348	0.07405847	0.83809476	0.26787795
249	0.992	0.097859445	-0.032422655	-0.04482477	0.18682965	0.089516951	0.099399766	-0.032368734	0.012005938	-0.086533038	0.072456654	0.17607175	0.092704563	-0.028271803	0.038592328	-0.0067294724	0.12574926	0.17711936	0.019397001	-0.10032867	-0.005022646	-0.04392974	0.029152807	0.16977292	0.034126571	0.048764825	0.39238254	-0.12879478	0.30831492	0.47072419	0.14481502	0.049656058	0.37350715	-0.0067058953	0.3602562	0.48228489	0.020630514	0.11347639	0.7828878	-0.19193309	0.094939001	0.81006083	0.1855017	0.18007976	0.88808826	-0.12442222	0.17081645	0.9034954	0.11636558	-0.018556613	0.92457632	-0.0075837185	0.14593731	1.36513	-0.17119199	0.10742058	1.3794421	0.14597628	0.049461636	1.3993347	-0.030579156	0.074974941	1.0235582	-0.22578124	-0.012216791	1.0546373	0.19090273	0.28555185	0.87618618	-0.24647985	0.074546343	0.83854122	0.26811856
250	0.996	0.097867213	-0.032424255	-0.044818884	0.20856463	0.088250465	0.099179169	-0.032630427	0.012663214	-0.085868295	0.091084348	0.17087613	0.092828583	-0.028035825	0.039264308	-0.006451813	0.14422338	0.17369737	0.018886118	-0.10040951	-0.003894814	-0.04348326	0.048338468	0.16314823	0.03402275	0.048897273	0.39292765	-0.12867427	0.31853322	0.4732816	0.14428293	0.050326706	0.37381798	-0.006701817	0.36951239	0.48614773	0.020243478	0.11700609	0.78292863	-0.19185631	0.10245979	0.81124726	0.18587394	0.18465617	0.88817424	-0.12520496	0.17715447	0.90398184	0.11545175	-0.014557693	0.92494635	-0.0055339567	0.15165866	1.3653396	-0.1710804	0.11376469	1.3793972	0.14616066	0.055535042	1.3995894	-0.030426619	0.08334356	1.0231113	-0.2258298	-0.0090905383	1.0558571	0.1906287	0.29708129	0.87966705	-0.24525967	0.075227432	0.83900656	0.26841083
251	1	0.097818216	-0.032453272	-0.044731422	0.23045636	0.087003576	0.098905193	-0.032818977	0.013313322	-0.085259074	0.10994423	0.16565272	0.092802371	-0.027562991	0.039887694	-0.0062243933	0.16287267	0.17020186	0.018417092	-0.10045398	-0.0028305285	-0.042962701	0.067877928	0.15642464	0.033700458	0.049239564	0.39342793	-0.12854676	0.32856851	0.47568057	0.14375597	0.050971341	0.37404036	-0.0065360852	0.37855756	0.4898016	0.019848242	0.12071511	0.78295651	-0.19174306	0.11032511	0.81243539	0.18634542	0.18915813	0.88819233	-0.12600339	0.18353032	0.90437827	0.11458406	-0.013087058	0.92575264	-0.002257119	0.15737279	1.3654598	-0.17096318	0.12010924	1.3792428	0.14632864	0.061628386	1.3997571	-0.030178204	0.091722135	1.0226093	-0.22585346	-0.0058079428	1.0569915	0.19033727	0.30858602	0.88315806	-0.24398845	0.076170219	0.8394854	0.26877705
252	1.004	0.097755057	-0.032488253	-0.044611016	0.2523295	0.085829763	0.09865121	-0.032875537	0.013945619	-0.084724521	0.12905594	0.16040025	0.092668395	-0.026991359	0.040466187	-0.0059197782	0.18163581	0.16667293	0.017949138	-0.10042717	-0.0018756982	-0.042426186	0.087770129	0.14960943	0.033172437	0.049740803	0.39385862	-0.12836355	0.33844668	0.47792657	0.14324217	0.051570062	0.37413996	-0.0061383745	0.38738449	0.49322447	0.019450123	0.12449923	0.78294948	-0.19165136	0.11811539	0.8134837	0.18673343	0.19351984	0.8881088	-0.12685789	0.18990127	0.90468195	0.11373896	-0.011409557	0.92662991	0.00087605915	0.16309215	1.3654828	-0.17085725	0.12646059	1.3789774	0.14646814	0.067720578	1.3998265	-0.029896568	0.09997511	1.0220911	-0.22578355	-0.0023977837	1.058057	0.19002471	0.3200699	0.88665239	-0.24266491	0.07738535	0.83996108	0.26922005
253	1.008	0.097709761	-0.032513202	-0.044491862	0.2740731	0.084787602	0.09846613	-0.032825786	0.014557912	-0.084194391	0.14834191	0.15511091	0.092548307	-0.026499056	0.041039712	-0.005405768	0.20049855	0.16317284	0.017439437	-0.10035103	-0.0010080124	-0.041865931	0.10782301	0.14280413	0.0326437	0.050394164	0.39421238	-0.12811417	0.3482075	0.48003004	0.14275119	0.052159987	0.37409795	-0.0054903369	0.39599128	0.49640302	0.019054413	0.128268	0.78287613	-0.19163803	0.12550864	0.8142875	0.18689725	0.19778622	0.88794095	-0.12774586	0.19626826	0.90489859	0.11291404	-0.0071693651	0.92707168	0.0027292695	0.16882118	1.3654196	-0.17079433	0.13283117	1.3786054	0.14657974	0.073799645	1.3997923	-0.029611685	0.10784271	1.0216237	-0.22546663	0.001029879	1.0590661	0.18967899	0.33148528	0.89012814	-0.2413341	0.078742984	0.84040125	0.26969336
254	1.012	0.097669273	-0.032531001	-0.044360884	0.29572535	0.083890729	0.098332657	-0.032707769	0.015150337	-0.083621724	0.16777264	0.14979829	0.092422594	-0.026105994	0.041615821	-0.0046965895	0.21953113	0.1596784	0.01698452	-0.10023886	-0.00019425359	-0.041212054	0.1278193	0.13613692	0.032286818	0.051200756	0.39449085	-0.12781397	0.35787462	0.48200792	0.14230278	0.052879349	0.37396418	-0.0047412479	0.40439141	0.49933532	0.018666823	0.13201424	0.78272764	-0.19170128	0.13252718	0.81485634	0.18684968	0.20203536	0.88771912	-0.12861915	0.20265516	0.90503271	0.11211582	-0.00041431732	0.92682927	0.0034366386	0.17455932	1.3652912	-0.17078068	0.13921976	1.378133	0.14667539	0.079861765	1.3996505	-0.02932862	0.11502934	1.0212769	-0.22472284	0.004406649	1.0600176	0.18928264	0.3427772	0.89356922	-0.24004416	0.080050856	0.84077628	0.27013408
